<svg xmlns="http://www.w3.org/2000/svg" xmlns:xlink="http://www.w3.org/1999/xlink" version="1.1" width="256" height="256" viewBox="0 0 256 256" xml:space="preserve">

<defs>
</defs>
<g style="stroke: none; stroke-width: 0; stroke-dasharray: none; stroke-linecap: butt; stroke-linejoin: miter; stroke-miterlimit: 10; fill: none; fill-rule: nonzero; opacity: 1;" transform="translate(1.4065934065934016 1.4065934065934016) scale(2.81 2.81)" >
	<polygon points="64.37,82.47 64.37,34.69 45,24.9 25.63,34.69 25.63,82.47 " style="stroke: none; stroke-width: 1; stroke-dasharray: none; stroke-linecap: butt; stroke-linejoin: miter; stroke-miterlimit: 10; fill: rgb(242,90,36); fill-rule: nonzero; opacity: 1;" transform="  matrix(1 0 0 1 0 0) "/>
	<polyline points="56.59,82.47 56.59,64.4 33.41,64.4 33.41,82.47 " style="stroke: none; stroke-width: 1; stroke-dasharray: none; stroke-linecap: butt; stroke-linejoin: miter; stroke-miterlimit: 10; fill: rgb(250,238,238); fill-rule: nonzero; opacity: 1;" transform="  matrix(1 0 0 1 0 0) "/>
	<polyline points="19.14,48.98 4.25,48.98 4.25,82.47 19.14,82.47 " style="stroke: none; stroke-width: 1; stroke-dasharray: none; stroke-linecap: butt; stroke-linejoin: miter; stroke-miterlimit: 10; fill: rgb(242,90,36); fill-rule: nonzero; opacity: 1;" transform="  matrix(1 0 0 1 0 0) "/>
	<polyline points="70.86,48.98 85.75,48.98 85.75,82.47 70.86,82.47 " style="stroke: none; stroke-width: 1; stroke-dasharray: none; stroke-linecap: butt; stroke-linejoin: miter; stroke-miterlimit: 10; fill: rgb(242,90,36); fill-rule: nonzero; opacity: 1;" transform="  matrix(1 0 0 1 0 0) "/>
	<circle cx="45.002" cy="44.322" r="7.262" style="stroke: none; stroke-width: 1; stroke-dasharray: none; stroke-linecap: butt; stroke-linejoin: miter; stroke-miterlimit: 10; fill: rgb(250,238,238); fill-rule: nonzero; opacity: 1;" transform="  matrix(1 0 0 1 0 0) "/>
	<polygon points="59.27,18.82 45,18.82 45,10.78 59.27,10.78 56.38,14.8 " style="stroke: none; stroke-width: 1; stroke-dasharray: none; stroke-linecap: butt; stroke-linejoin: miter; stroke-miterlimit: 10; fill: rgb(71,187,198); fill-rule: nonzero; opacity: 1;" transform="  matrix(1 0 0 1 0 0) "/>
	<polyline points="70.86,48.98 89,48.98 75.66,38.13 70.86,38.13 " style="stroke: none; stroke-width: 1; stroke-dasharray: none; stroke-linecap: butt; stroke-linejoin: miter; stroke-miterlimit: 10; fill: rgb(71,187,198); fill-rule: nonzero; opacity: 1;" transform="  matrix(1 0 0 1 0 0) "/>
	<polyline points="19.14,38.13 14.34,38.13 1,48.98 19.14,48.98 " style="stroke: none; stroke-width: 1; stroke-dasharray: none; stroke-linecap: butt; stroke-linejoin: miter; stroke-miterlimit: 10; fill: rgb(71,187,198); fill-rule: nonzero; opacity: 1;" transform="  matrix(1 0 0 1 0 0) "/>
	<path d="M 45 25.897 c -0.552 0 -1 -0.448 -1 -1 V 7.53 c 0 -0.552 0.448 -1 1 -1 s 1 0.448 1 1 v 17.367 C 46 25.449 45.552 25.897 45 25.897 z" style="stroke: none; stroke-width: 1; stroke-dasharray: none; stroke-linecap: butt; stroke-linejoin: miter; stroke-miterlimit: 10; fill: rgb(0,0,0); fill-rule: nonzero; opacity: 1;" transform=" matrix(1 0 0 1 0 0) " stroke-linecap="round" />
	<path d="M 64.372 83.47 H 25.628 c -0.552 0 -1 -0.447 -1 -1 V 34.694 c 0 -0.377 0.212 -0.722 0.549 -0.893 l 19.372 -9.797 c 0.283 -0.144 0.619 -0.144 0.902 0 l 19.372 9.797 c 0.337 0.17 0.549 0.516 0.549 0.893 V 82.47 C 65.372 83.022 64.925 83.47 64.372 83.47 z M 26.628 81.47 h 36.744 V 35.309 L 45 26.018 l -18.372 9.292 V 81.47 z" style="stroke: none; stroke-width: 1; stroke-dasharray: none; stroke-linecap: butt; stroke-linejoin: miter; stroke-miterlimit: 10; fill: rgb(0,0,0); fill-rule: nonzero; opacity: 1;" transform=" matrix(1 0 0 1 0 0) " stroke-linecap="round" />
	<path d="M 56.589 83.47 c -0.553 0 -1 -0.447 -1 -1 V 65.398 H 34.411 V 82.47 c 0 0.553 -0.448 1 -1 1 s -1 -0.447 -1 -1 V 64.398 c 0 -0.553 0.448 -1 1 -1 h 23.178 c 0.553 0 1 0.447 1 1 V 82.47 C 57.589 83.022 57.142 83.47 56.589 83.47 z" style="stroke: none; stroke-width: 1; stroke-dasharray: none; stroke-linecap: butt; stroke-linejoin: miter; stroke-miterlimit: 10; fill: rgb(0,0,0); fill-rule: nonzero; opacity: 1;" transform=" matrix(1 0 0 1 0 0) " stroke-linecap="round" />
	<path d="M 19.138 83.47 H 4.245 c -0.552 0 -1 -0.447 -1 -1 V 48.982 c 0 -0.553 0.448 -1 1 -1 h 14.893 c 0.552 0 1 0.447 1 1 s -0.448 1 -1 1 H 5.245 V 81.47 h 13.893 c 0.552 0 1 0.447 1 1 S 19.69 83.47 19.138 83.47 z" style="stroke: none; stroke-width: 1; stroke-dasharray: none; stroke-linecap: butt; stroke-linejoin: miter; stroke-miterlimit: 10; fill: rgb(0,0,0); fill-rule: nonzero; opacity: 1;" transform=" matrix(1 0 0 1 0 0) " stroke-linecap="round" />
	<path d="M 85.755 83.47 H 70.862 c -0.553 0 -1 -0.447 -1 -1 s 0.447 -1 1 -1 h 13.893 V 49.982 H 70.862 c -0.553 0 -1 -0.447 -1 -1 s 0.447 -1 1 -1 h 14.893 c 0.553 0 1 0.447 1 1 V 82.47 C 86.755 83.022 86.308 83.47 85.755 83.47 z" style="stroke: none; stroke-width: 1; stroke-dasharray: none; stroke-linecap: butt; stroke-linejoin: miter; stroke-miterlimit: 10; fill: rgb(0,0,0); fill-rule: nonzero; opacity: 1;" transform=" matrix(1 0 0 1 0 0) " stroke-linecap="round" />
	<path d="M 45 52.589 c -4.556 0 -8.262 -3.706 -8.262 -8.262 s 3.706 -8.262 8.262 -8.262 s 8.262 3.707 8.262 8.262 S 49.556 52.589 45 52.589 z M 45 38.065 c -3.453 0 -6.262 2.809 -6.262 6.262 s 2.809 6.262 6.262 6.262 c 3.453 0 6.262 -2.809 6.262 -6.262 S 48.453 38.065 45 38.065 z" style="stroke: none; stroke-width: 1; stroke-dasharray: none; stroke-linecap: butt; stroke-linejoin: miter; stroke-miterlimit: 10; fill: rgb(0,0,0); fill-rule: nonzero; opacity: 1;" transform=" matrix(1 0 0 1 0 0) " stroke-linecap="round" />
	<path d="M 59.27 19.819 H 45 c -0.552 0 -1 -0.448 -1 -1 v -8.044 c 0 -0.552 0.448 -1 1 -1 h 14.27 c 0.375 0 0.719 0.21 0.89 0.543 s 0.142 0.735 -0.077 1.04 l -2.467 3.439 l 2.467 3.439 c 0.219 0.305 0.248 0.706 0.077 1.04 S 59.645 19.819 59.27 19.819 z M 46 17.819 h 11.321 l -1.749 -2.439 c -0.25 -0.349 -0.25 -0.817 0 -1.166 l 1.749 -2.439 H 46 V 17.819 z" style="stroke: none; stroke-width: 1; stroke-dasharray: none; stroke-linecap: butt; stroke-linejoin: miter; stroke-miterlimit: 10; fill: rgb(0,0,0); fill-rule: nonzero; opacity: 1;" transform=" matrix(1 0 0 1 0 0) " stroke-linecap="round" />
	<path d="M 89 49.982 H 70.862 c -0.553 0 -1 -0.447 -1 -1 s 0.447 -1 1 -1 h 15.324 l -10.884 -8.854 h -4.44 c -0.553 0 -1 -0.448 -1 -1 s 0.447 -1 1 -1 h 4.796 c 0.229 0 0.453 0.079 0.631 0.224 l 13.342 10.854 c 0.328 0.267 0.453 0.712 0.312 1.11 S 89.423 49.982 89 49.982 z" style="stroke: none; stroke-width: 1; stroke-dasharray: none; stroke-linecap: butt; stroke-linejoin: miter; stroke-miterlimit: 10; fill: rgb(0,0,0); fill-rule: nonzero; opacity: 1;" transform=" matrix(1 0 0 1 0 0) " stroke-linecap="round" />
	<path d="M 19.138 49.982 H 1 c -0.423 0 -0.801 -0.267 -0.942 -0.665 s -0.017 -0.844 0.312 -1.11 l 13.342 -10.854 c 0.178 -0.145 0.401 -0.224 0.631 -0.224 h 4.796 c 0.552 0 1 0.448 1 1 s -0.448 1 -1 1 h -4.44 L 3.814 47.982 h 15.324 c 0.552 0 1 0.447 1 1 S 19.69 49.982 19.138 49.982 z" style="stroke: none; stroke-width: 1; stroke-dasharray: none; stroke-linecap: butt; stroke-linejoin: miter; stroke-miterlimit: 10; fill: rgb(0,0,0); fill-rule: nonzero; opacity: 1;" transform=" matrix(1 0 0 1 0 0) " stroke-linecap="round" />
	<path d="M 13.314 63.481 c -0.552 0 -1 -0.447 -1 -1 v -4.561 c 0 -0.553 0.448 -1 1 -1 s 1 0.447 1 1 v 4.561 C 14.314 63.034 13.866 63.481 13.314 63.481 z" style="stroke: none; stroke-width: 1; stroke-dasharray: none; stroke-linecap: butt; stroke-linejoin: miter; stroke-miterlimit: 10; fill: rgb(0,0,0); fill-rule: nonzero; opacity: 1;" transform=" matrix(1 0 0 1 0 0) " stroke-linecap="round" />
	<path d="M 13.314 75.38 c -0.552 0 -1 -0.447 -1 -1 v -4.56 c 0 -0.553 0.448 -1 1 -1 s 1 0.447 1 1 v 4.56 C 14.314 74.933 13.866 75.38 13.314 75.38 z" style="stroke: none; stroke-width: 1; stroke-dasharray: none; stroke-linecap: butt; stroke-linejoin: miter; stroke-miterlimit: 10; fill: rgb(0,0,0); fill-rule: nonzero; opacity: 1;" transform=" matrix(1 0 0 1 0 0) " stroke-linecap="round" />
	<path d="M 76.686 63.481 c -0.553 0 -1 -0.447 -1 -1 v -4.561 c 0 -0.553 0.447 -1 1 -1 s 1 0.447 1 1 v 4.561 C 77.686 63.034 77.238 63.481 76.686 63.481 z" style="stroke: none; stroke-width: 1; stroke-dasharray: none; stroke-linecap: butt; stroke-linejoin: miter; stroke-miterlimit: 10; fill: rgb(0,0,0); fill-rule: nonzero; opacity: 1;" transform=" matrix(1 0 0 1 0 0) " stroke-linecap="round" />
	<path d="M 76.686 75.38 c -0.553 0 -1 -0.447 -1 -1 v -4.56 c 0 -0.553 0.447 -1 1 -1 s 1 0.447 1 1 v 4.56 C 77.686 74.933 77.238 75.38 76.686 75.38 z" style="stroke: none; stroke-width: 1; stroke-dasharray: none; stroke-linecap: butt; stroke-linejoin: miter; stroke-miterlimit: 10; fill: rgb(0,0,0); fill-rule: nonzero; opacity: 1;" transform=" matrix(1 0 0 1 0 0) " stroke-linecap="round" />
	<path d="M 45 83.47 c -0.552 0 -1 -0.447 -1 -1 V 64.398 c 0 -0.553 0.448 -1 1 -1 s 1 0.447 1 1 V 82.47 C 46 83.022 45.552 83.47 45 83.47 z" style="stroke: none; stroke-width: 1; stroke-dasharray: none; stroke-linecap: butt; stroke-linejoin: miter; stroke-miterlimit: 10; fill: rgb(0,0,0); fill-rule: nonzero; opacity: 1;" transform=" matrix(1 0 0 1 0 0) " stroke-linecap="round" />
	<path d="M 47.051 47.377 c -0.256 0 -0.512 -0.098 -0.707 -0.293 l -2.051 -2.049 C 44.105 44.847 44 44.592 44 44.327 v -2.238 c 0 -0.552 0.448 -1 1 -1 s 1 0.448 1 1 v 1.823 l 1.758 1.757 c 0.391 0.391 0.391 1.023 0 1.414 C 47.563 47.279 47.307 47.377 47.051 47.377 z" style="stroke: none; stroke-width: 1; stroke-dasharray: none; stroke-linecap: butt; stroke-linejoin: miter; stroke-miterlimit: 10; fill: rgb(0,0,0); fill-rule: nonzero; opacity: 1;" transform=" matrix(1 0 0 1 0 0) " stroke-linecap="round" />
</g>
</svg>